<?xml version="1.0" encoding="UTF-8" standalone="no"?>
<!-- Created with Inkscape (http://www.inkscape.org/) -->

<svg
   version="1.1"
   id="svg2"
   width="336"
   height="192"
   viewBox="0 0 336 192"
   sodipodi:docname="bCard_nesbah_updated_color.ai"
   xmlns:inkscape="http://www.inkscape.org/namespaces/inkscape"
   xmlns:sodipodi="http://sodipodi.sourceforge.net/DTD/sodipodi-0.dtd"
   xmlns="http://www.w3.org/2000/svg"
   xmlns:svg="http://www.w3.org/2000/svg">
  <defs
     id="defs6">
    <clipPath
       clipPathUnits="userSpaceOnUse"
       id="clipPath18">
      <path
         d="M 0,144 H 252 V 0 H 0 Z"
         id="path16" />
    </clipPath>
    <clipPath
       clipPathUnits="userSpaceOnUse"
       id="clipPath26">
      <path
         d="M 0,144 H 163.6 V 0 H 0 Z"
         id="path24" />
    </clipPath>
    <clipPath
       clipPathUnits="userSpaceOnUse"
       id="clipPath30">
      <path
         d="M 0,144 H 54.9043 V 86.3588 H 0 Z"
         id="path28" />
    </clipPath>
    <clipPath
       clipPathUnits="userSpaceOnUse"
       id="clipPath34">
      <path
         d="m 72.08,57.5013 h 59.66 V 0 H 72.08 Z"
         id="path32" />
    </clipPath>
  </defs>
  <sodipodi:namedview
     id="namedview4"
     pagecolor="#ffffff"
     bordercolor="#000000"
     borderopacity="0.25"
     inkscape:showpageshadow="2"
     inkscape:pageopacity="0.0"
     inkscape:pagecheckerboard="0"
     inkscape:deskcolor="#d1d1d1" />
  <g
     id="g8"
     inkscape:groupmode="layer"
     inkscape:label="bCard_nesbah_updated_color"
     transform="matrix(1.3333333,0,0,-1.3333333,0,192)">
    <path
       d="M 0,0 H 252 V 144 H 0 Z"
       style="fill:#ffffff;fill-opacity:1;fill-rule:nonzero;stroke:none"
       id="path10" />
    <g
       id="g12">
      <g
         id="g14"
         clip-path="url(#clipPath18)">
        <g
           id="g20">
          <g
             id="g22" />
          <g
             id="g74">
            <g
               clip-path="url(#clipPath26)"
               opacity="0.0800018"
               id="g72">
              <g
                 id="g46">
                <g
                   id="g36" />
                <g
                   id="g44">
                  <g
                     clip-path="url(#clipPath30)"
                     opacity="0.470001"
                     id="g42">
                    <g
                       transform="translate(54.0801,120.25)"
                       id="g40">
                      <path
                         d="m 0,0 c -0.19,-0.62 -0.4,-1.23 -0.64,-1.83 -0.98,-2.41 -2.44,-4.67 -4.4,-6.62 l -19.55,-19.56 c -7.83,-7.84 -20.53,-7.84 -28.37,-0.01 -0.39,0.39 -0.77,0.8 -1.12,1.22 v 25.93 c 0.35,0.42 0.73,0.83 1.12,1.22 l 19.37,19.37 c 0.05,0.06 0.11,0.12 0.18,0.18 0.49,0.49 1,0.95 1.52,1.38 0.26,0.22 0.53,0.42 0.8,0.62 0.54,0.4 1.09,0.76 1.66,1.1 0.46,0.27 0.93,0.53 1.4,0.75 h 17.57 c 1.95,-0.95 3.78,-2.23 5.4,-3.85 1.23,-1.23 2.26,-2.57 3.1,-4 0.34,-0.57 0.64,-1.15 0.92,-1.74 v -0.01 c 0.28,-0.6 0.52,-1.2 0.74,-1.81 0.22,-0.61 0.4,-1.23 0.55,-1.86 C 1.09,7.03 1.01,3.41 0,0"
                         style="fill:#719dff;fill-opacity:1;fill-rule:nonzero;stroke:none"
                         id="path38" />
                    </g>
                  </g>
                </g>
              </g>
              <g
                 transform="translate(54.0801,120.25)"
                 id="g50">
                <path
                   d="m 0,0 c -0.18,-0.61 -0.39,-1.23 -0.64,-1.83 -0.98,-2.41 -2.44,-4.67 -4.4,-6.62 -7.82,-7.83 -20.52,-7.82 -28.36,0.01 -7.77,7.78 -7.84,20.33 -0.19,28.16 0.05,0.06 0.11,0.12 0.18,0.18 v 0.01 c 0.49,0.49 1,0.95 1.52,1.37 0.26,0.22 0.53,0.42 0.8,0.62 0.54,0.4 1.09,0.77 1.66,1.1 0.46,0.27 0.93,0.53 1.4,0.75 h 17.57 c 1.95,-0.95 3.78,-2.23 5.4,-3.85 1.23,-1.23 2.26,-2.57 3.1,-4 0.34,-0.57 0.65,-1.15 0.92,-1.74 v -0.01 c 0.28,-0.6 0.53,-1.2 0.74,-1.81 0.22,-0.61 0.4,-1.23 0.55,-1.86 C 1.09,7.03 1.01,3.41 0,0"
                   style="fill:#7e2cff;fill-opacity:1;fill-rule:nonzero;stroke:none"
                   id="path48" />
              </g>
              <g
                 id="g62">
                <g
                   id="g52" />
                <g
                   id="g60">
                  <g
                     clip-path="url(#clipPath34)"
                     opacity="0.470001"
                     id="g58">
                    <g
                       transform="translate(131.7402,37.4404)"
                       id="g56">
                      <path
                         d="m 0,0 c 0,-5.131 -1.96,-10.261 -5.88,-14.181 l -19.37,-19.37 c -0.05,-0.059 -0.11,-0.12 -0.18,-0.179 -0.49,-0.491 -1,-0.951 -1.52,-1.38 -0.26,-0.22 -0.53,-0.42 -0.8,-0.62 -0.54,-0.401 -1.09,-0.76 -1.66,-1.1 -0.37,-0.221 -0.74,-0.42 -1.12,-0.61 h -18.13 c -0.79,0.4 -1.56,0.86 -2.3,1.379 -0.33,0.21 -0.64,0.441 -0.95,0.68 -0.64,0.511 -1.27,1.061 -1.861,1.651 h -0.009 c -0.491,0.49 -0.94,0.99 -1.37,1.52 -0.43,0.539 -0.83,1.079 -1.2,1.64 -0.3,0.45 -0.58,0.92 -0.84,1.389 -2.44,4.441 -3.07,9.611 -1.9,14.42 0.15,0.62 0.34,1.24 0.55,1.851 0.24,0.689 0.519,1.359 0.84,2.019 0.11,0.22 0.22,0.441 0.33,0.661 v 0.009 c 0.91,1.741 2.099,3.37 3.57,4.84 l 19.55,19.561 c 7.83,7.84 20.54,7.84 28.37,0.009 C -1.96,10.279 0,5.14 0,0"
                         style="fill:#719dff;fill-opacity:1;fill-rule:nonzero;stroke:none"
                         id="path54" />
                    </g>
                  </g>
                </g>
              </g>
              <g
                 transform="translate(106.4902,3.8896)"
                 id="g66">
                <path
                   d="M 0,0 C -0.05,-0.06 -0.11,-0.12 -0.18,-0.18 V -0.189 C -0.67,-0.68 -1.18,-1.14 -1.7,-1.56 -1.96,-1.779 -2.23,-1.979 -2.5,-2.18 -3.04,-2.58 -3.59,-2.949 -4.16,-3.279 -4.53,-3.5 -4.9,-3.699 -5.28,-3.89 h -18.13 c -0.79,0.401 -1.56,0.861 -2.3,1.38 -0.33,0.21 -0.64,0.441 -0.95,0.68 -0.64,0.511 -1.27,1.06 -1.861,1.65 -0.489,0.491 -0.949,1 -1.379,1.521 -0.43,0.539 -0.83,1.079 -1.2,1.639 -0.3,0.451 -0.58,0.92 -0.84,1.39 -2.44,4.441 -3.07,9.61 -1.9,14.42 0.16,0.62 0.34,1.24 0.55,1.851 0.25,0.689 0.53,1.359 0.84,2.019 0.11,0.22 0.22,0.441 0.33,0.66 v 0.01 c 0.93,1.74 2.12,3.38 3.58,4.84 7.82,7.83 20.51,7.82 28.35,-0.01 C 7.58,20.38 7.65,7.83 0,0"
                   style="fill:#3ba7ff;fill-opacity:1;fill-rule:nonzero;stroke:none"
                   id="path64" />
              </g>
              <g
                 transform="translate(163.5996,144)"
                 id="g70">
                <path
                   d="m 0,0 -144,-144 h -19.6 v 37.13 L -56.729,0 Z"
                   style="fill:#2044a0;fill-opacity:1;fill-rule:nonzero;stroke:none"
                   id="path68" />
              </g>
            </g>
          </g>
        </g>
        <g
           id="g76"
           transform="translate(175.0195,82.0918)">
          <path
             d="m 0,0 -2.891,-2.893 c -1.158,-1.158 -3.037,-1.159 -4.195,0 -1.158,1.158 -1.158,3.036 0,4.194 l 2.891,2.891 c 1.156,1.16 3.032,1.157 4.192,0 C 1.153,3.032 1.156,1.157 0,0"
             style="fill:#9f80ff;fill-opacity:1;fill-rule:nonzero;stroke:none"
             id="path78" />
        </g>
        <g
           id="g80"
           transform="translate(175.0186,82.0918)">
          <path
             d="m 0,0 c -1.156,-1.158 -3.033,-1.156 -4.192,0.001 -1.158,1.16 -1.16,3.036 -0.002,4.192 1.156,1.158 3.033,1.157 4.19,-10e-4 C 1.156,3.033 1.157,1.156 0,0"
             style="fill:#742cff;fill-opacity:1;fill-rule:nonzero;stroke:none"
             id="path82" />
        </g>
        <g
           id="g84"
           transform="translate(173.3701,64.3809)">
          <path
             d="m 0,0 2.891,2.893 c 1.158,1.159 3.037,1.159 4.195,0.001 1.158,-1.159 1.158,-3.037 0,-4.196 l -2.891,-2.89 c -1.156,-1.16 -3.032,-1.157 -4.191,0 C -1.153,-3.032 -1.156,-1.156 0,0"
             style="fill:#8ad0ff;fill-opacity:1;fill-rule:nonzero;stroke:none"
             id="path86" />
        </g>
        <g
           id="g88"
           transform="translate(173.3721,64.3809)">
          <path
             d="M 0,0 C 1.156,1.158 3.032,1.156 4.191,-0.001 5.35,-1.16 5.351,-3.037 4.193,-4.193 3.037,-5.351 1.16,-5.35 0.003,-4.191 -1.156,-3.032 -1.158,-1.156 0,0"
             style="fill:#3ba7ff;fill-opacity:1;fill-rule:nonzero;stroke:none"
             id="path90" />
        </g>
        <g
           id="g92"
           transform="translate(162.4717,61.5615)">
          <path
             d="m 0,0 v 0 c -1.158,1.158 -1.158,3.036 0,4.194 l 19.214,19.214 c 1.159,1.158 3.036,1.158 4.194,0 1.158,-1.158 1.158,-3.036 0,-4.194 L 4.194,0 C 3.036,-1.158 1.158,-1.158 0,0"
             style="fill:#1e1851;fill-opacity:1;fill-rule:nonzero;stroke:none"
             id="path94" />
        </g>
        <g
           id="g96"
           transform="translate(91.7939,85.875)">
          <path
             d="M 0,0 C 0.771,0 1.43,0.274 1.979,0.822 2.526,1.349 2.8,1.998 2.8,2.769 2.8,3.54 2.526,4.2 1.979,4.747 1.43,5.295 0.771,5.569 0,5.569 -0.771,5.569 -1.42,5.295 -1.947,4.747 -2.495,4.2 -2.769,3.54 -2.769,2.769 c 0,-0.771 0.274,-1.42 0.822,-1.947 C -1.42,0.274 -0.771,0 0,0"
             style="fill:#742cff;fill-opacity:1;fill-rule:nonzero;stroke:none"
             id="path98" />
        </g>
        <g
           id="g100"
           transform="translate(85.708,85.875)">
          <path
             d="M 0,0 C 0.771,0 1.43,0.274 1.978,0.822 2.526,1.349 2.8,1.998 2.8,2.769 2.8,3.54 2.526,4.2 1.978,4.747 1.43,5.295 0.771,5.569 0,5.569 -0.75,5.569 -1.4,5.295 -1.947,4.747 -2.495,4.2 -2.769,3.54 -2.769,2.769 c 0,-0.771 0.274,-1.42 0.822,-1.947 C -1.4,0.274 -0.75,0 0,0"
             style="fill:#742cff;fill-opacity:1;fill-rule:nonzero;stroke:none"
             id="path102" />
        </g>
        <g
           id="g104"
           transform="translate(106.0049,57.3926)">
          <path
             d="M 0,0 C -0.771,0 -1.43,-0.274 -1.979,-0.822 -2.526,-1.37 -2.8,-2.029 -2.8,-2.8 c 0,-0.751 0.274,-1.4 0.821,-1.947 0.549,-0.549 1.208,-0.822 1.979,-0.822 0.771,0 1.419,0.273 1.947,0.822 0.548,0.547 0.822,1.196 0.822,1.947 0,0.771 -0.274,1.43 -0.822,1.978 C 1.419,-0.274 0.771,0 0,0"
             style="fill:#3ba7ff;fill-opacity:1;fill-rule:nonzero;stroke:none"
             id="path106" />
        </g>
        <g
           id="g108"
           transform="translate(150.1885,85.875)">
          <path
             d="M 0,0 C 0.771,0 1.431,0.274 1.979,0.822 2.526,1.369 2.8,2.028 2.8,2.8 2.8,3.57 2.526,4.23 1.979,4.777 1.431,5.305 0.771,5.569 0,5.569 -0.771,5.569 -1.43,5.305 -1.978,4.777 -2.505,4.23 -2.769,3.57 -2.769,2.8 -2.769,2.028 -2.505,1.369 -1.978,0.822 -1.43,0.274 -0.771,0 0,0"
             style="fill:#742cff;fill-opacity:1;fill-rule:nonzero;stroke:none"
             id="path110" />
        </g>
        <g
           id="g112"
           transform="translate(91.7939,66.46)">
          <path
             d="m 0,0 h -9.829 l 0.031,3.713 c 0,2.15 0.415,3.773 1.247,4.869 0.832,1.095 2.171,1.643 4.017,1.643 l 4.534,0 z M 55.93,0 H 52.127 V 0.001 H 48.933 V 15.458 H 43.757 V -0.03 H 38.798 V 15.458 H 33.566 V 4.748 C 33.461,3.084 32.882,1.877 31.829,1.128 31.038,0.56 29.995,0.193 28.694,0.032 V 15.399 H 23.431 V 0.001 H 20.205 V 0 H 16.98 V 15.429 H 11.716 L 11.716,0 H 8.491 8.49 5.265 v 15.429 h -9.86 c -3.489,0 -6.167,-1.187 -8.033,-3.561 -1.623,-2.069 -2.435,-4.807 -2.435,-8.216 V -2.13 l 0.031,-3.195 H 8.49 8.491 20.206 v 0.001 h 6.786 c 2.232,0 4.189,0.366 5.873,1.095 0.244,0.08 0.474,0.181 0.701,0.303 v -1.398 h 18.56 v -0.001 h 9.068 V 15.429 H 55.93 Z"
             style="fill:#1e1851;fill-opacity:1;fill-rule:nonzero;stroke:none"
             id="path114" />
        </g>
      </g>
    </g>
  </g>
</svg>
